<svg xmlns="http://www.w3.org/2000/svg" xmlns:xlink="http://www.w3.org/1999/xlink" width="100" zoomAndPan="magnify" viewBox="0 0 75 74.999997" height="100" preserveAspectRatio="xMidYMid meet" version="1.0"><defs><g/><clipPath id="59fb0d67b8"><path d="M 7.675781 7.675781 L 67.3125 7.675781 L 67.3125 67.3125 L 7.675781 67.3125 Z M 7.675781 7.675781 " clip-rule="nonzero"/></clipPath><clipPath id="b1b9812eed"><path d="M 37.496094 7.675781 C 21.027344 7.675781 7.675781 21.027344 7.675781 37.496094 C 7.675781 53.960938 21.027344 67.3125 37.496094 67.3125 C 53.960938 67.3125 67.3125 53.960938 67.3125 37.496094 C 67.3125 21.027344 53.960938 7.675781 37.496094 7.675781 Z M 37.496094 7.675781 " clip-rule="nonzero"/></clipPath><clipPath id="95c2672108"><path d="M 8.992188 9.035156 L 65.917969 9.035156 L 65.917969 65.964844 L 8.992188 65.964844 Z M 8.992188 9.035156 " clip-rule="nonzero"/></clipPath><clipPath id="a971a2ab3c"><path d="M 37.453125 9.035156 C 21.734375 9.035156 8.992188 21.78125 8.992188 37.5 C 8.992188 53.21875 21.734375 65.964844 37.453125 65.964844 C 53.175781 65.964844 65.917969 53.21875 65.917969 37.5 C 65.917969 21.78125 53.175781 9.035156 37.453125 9.035156 Z M 37.453125 9.035156 " clip-rule="nonzero"/></clipPath><clipPath id="a057ed0ec2"><path d="M 9.410156 9.738281 L 65.660156 9.738281 L 65.660156 37.160156 L 9.410156 37.160156 Z M 9.410156 9.738281 " clip-rule="nonzero"/></clipPath><clipPath id="e5c8ec77e4"><path d="M 18.984375 18.984375 L 56.015625 18.984375 L 56.015625 56.015625 L 18.984375 56.015625 Z M 18.984375 18.984375 " clip-rule="nonzero"/></clipPath><clipPath id="8e031001d2"><path d="M 37.5 18.984375 C 27.273438 18.984375 18.984375 27.273438 18.984375 37.5 C 18.984375 47.726562 27.273438 56.015625 37.5 56.015625 C 47.726562 56.015625 56.015625 47.726562 56.015625 37.5 C 56.015625 27.273438 47.726562 18.984375 37.5 18.984375 Z M 37.5 18.984375 " clip-rule="nonzero"/></clipPath><clipPath id="ddf7587262"><path d="M 12.492188 34.523438 L 16.242188 34.523438 L 16.242188 40.523438 L 12.492188 40.523438 Z M 12.492188 34.523438 " clip-rule="nonzero"/></clipPath><clipPath id="55a8e50578"><path d="M 11.949219 36.890625 L 16.449219 36.890625 L 16.449219 41.390625 L 11.949219 41.390625 Z M 11.949219 36.890625 " clip-rule="nonzero"/></clipPath><clipPath id="ec1e70e016"><path d="M 58.714844 34.523438 L 62.464844 34.523438 L 62.464844 40.523438 L 58.714844 40.523438 Z M 58.714844 34.523438 " clip-rule="nonzero"/></clipPath><clipPath id="61aff383bb"><path d="M 58.265625 36.890625 L 62.765625 36.890625 L 62.765625 41.390625 L 58.265625 41.390625 Z M 58.265625 36.890625 " clip-rule="nonzero"/></clipPath><clipPath id="f0a149f709"><path d="M 23.71875 26.277344 L 51.46875 26.277344 L 51.46875 48.777344 L 23.71875 48.777344 Z M 23.71875 26.277344 " clip-rule="nonzero"/></clipPath><clipPath id="22466c8c64"><path d="M 28 36 L 47 36 L 47 48.777344 L 28 48.777344 Z M 28 36 " clip-rule="nonzero"/></clipPath><clipPath id="c2ccc46398"><path d="M 17.839844 17.675781 L 57.484375 17.675781 L 57.484375 57.320312 L 17.839844 57.320312 Z M 17.839844 17.675781 " clip-rule="nonzero"/></clipPath><clipPath id="610801f318"><path d="M 37.589844 17.675781 C 26.679688 17.675781 17.839844 26.550781 17.839844 37.496094 C 17.839844 48.445312 26.679688 57.320312 37.589844 57.320312 C 48.496094 57.320312 57.335938 48.445312 57.335938 37.496094 C 57.335938 26.550781 48.496094 17.675781 37.589844 17.675781 Z M 37.589844 17.675781 " clip-rule="nonzero"/></clipPath></defs><g clip-path="url(#59fb0d67b8)"><g clip-path="url(#b1b9812eed)"><path stroke-linecap="butt" transform="matrix(0.75, 0, 0, 0.75, 7.676291, 7.676289)" fill="none" stroke-linejoin="miter" d="M 39.75974 -0.000676591 C 17.801405 -0.000676591 -0.000679924 17.801408 -0.000679924 39.759743 C -0.000679924 61.71287 17.801405 79.514955 39.75974 79.514955 C 61.712867 79.514955 79.514952 61.71287 79.514952 39.759743 C 79.514952 17.801408 61.712867 -0.000676591 39.75974 -0.000676591 Z M 39.75974 -0.000676591 " stroke="#000000" stroke-width="4" stroke-opacity="1" stroke-miterlimit="4"/></g></g><g clip-path="url(#95c2672108)"><g clip-path="url(#a971a2ab3c)"><path fill="#ffffff" d="M 8.992188 9.035156 L 65.917969 9.035156 L 65.917969 65.964844 L 8.992188 65.964844 Z M 8.992188 9.035156 " fill-opacity="1" fill-rule="nonzero"/></g></g><g clip-path="url(#a057ed0ec2)"><path fill="#1a064f" d="M 37.496094 9.410156 C 53.003906 9.410156 65.574219 21.984375 65.574219 37.488281 L 9.417969 37.488281 C 9.417969 21.984375 21.988281 9.410156 37.496094 9.410156 Z M 37.496094 9.410156 " fill-opacity="1" fill-rule="nonzero"/></g><g clip-path="url(#e5c8ec77e4)"><g clip-path="url(#8e031001d2)"><path fill="#ffffff" d="M 18.984375 18.984375 L 56.015625 18.984375 L 56.015625 56.015625 L 18.984375 56.015625 Z M 18.984375 18.984375 " fill-opacity="1" fill-rule="nonzero"/></g></g><g clip-path="url(#ddf7587262)"><path fill="#ffffff" d="M 14.367188 34.523438 L 12.492188 37.523438 L 14.367188 40.519531 L 16.242188 37.523438 Z M 14.367188 34.523438 " fill-opacity="1" fill-rule="nonzero"/></g><g clip-path="url(#55a8e50578)"><path fill="#6440fb" d="M 14.375 36.90625 L 15.121094 38.414062 L 16.789062 38.65625 L 15.582031 39.835938 L 15.867188 41.496094 L 14.375 40.710938 L 12.882812 41.496094 L 13.167969 39.835938 L 11.960938 38.65625 L 13.628906 38.414062 Z M 14.375 36.90625 " fill-opacity="1" fill-rule="nonzero"/><path fill="#6440fb" d="M 14.363281 36.890625 L 15.109375 38.402344 L 16.777344 38.644531 L 15.570312 39.820312 L 15.855469 41.480469 L 14.363281 40.695312 L 12.871094 41.480469 L 13.15625 39.820312 L 11.949219 38.644531 L 13.617188 38.402344 Z M 14.363281 36.890625 " fill-opacity="1" fill-rule="nonzero"/><path fill="#6440fb" d="M 14.363281 36.890625 L 15.109375 38.402344 L 16.777344 38.644531 L 15.570312 39.820312 L 15.855469 41.480469 L 14.363281 40.695312 L 12.871094 41.480469 L 13.15625 39.820312 L 11.949219 38.644531 L 13.617188 38.402344 Z M 14.363281 36.890625 " fill-opacity="1" fill-rule="nonzero"/><path fill="#6440fb" d="M 14.363281 36.890625 L 15.109375 38.402344 L 16.777344 38.644531 L 15.570312 39.820312 L 15.855469 41.480469 L 14.363281 40.695312 L 12.871094 41.480469 L 13.15625 39.820312 L 11.949219 38.644531 L 13.617188 38.402344 Z M 14.363281 36.890625 " fill-opacity="1" fill-rule="nonzero"/></g><g clip-path="url(#ec1e70e016)"><path fill="#ffffff" d="M 60.589844 34.523438 L 58.714844 37.523438 L 60.589844 40.519531 L 62.464844 37.523438 Z M 60.589844 34.523438 " fill-opacity="1" fill-rule="nonzero"/></g><g clip-path="url(#61aff383bb)"><path fill="#6440fb" d="M 60.691406 36.90625 L 61.4375 38.414062 L 63.105469 38.65625 L 61.898438 39.835938 L 62.183594 41.496094 L 60.691406 40.710938 L 59.199219 41.496094 L 59.484375 39.835938 L 58.277344 38.65625 L 59.945312 38.414062 Z M 60.691406 36.90625 " fill-opacity="1" fill-rule="nonzero"/><path fill="#6440fb" d="M 60.679688 36.890625 L 61.425781 38.402344 L 63.09375 38.644531 L 61.886719 39.820312 L 62.171875 41.480469 L 60.679688 40.695312 L 59.1875 41.480469 L 59.472656 39.820312 L 58.265625 38.644531 L 59.933594 38.402344 Z M 60.679688 36.890625 " fill-opacity="1" fill-rule="nonzero"/><path fill="#6440fb" d="M 60.679688 36.890625 L 61.425781 38.402344 L 63.09375 38.644531 L 61.886719 39.820312 L 62.171875 41.480469 L 60.679688 40.695312 L 59.1875 41.480469 L 59.472656 39.820312 L 58.265625 38.644531 L 59.933594 38.402344 Z M 60.679688 36.890625 " fill-opacity="1" fill-rule="nonzero"/><path fill="#6440fb" d="M 60.679688 36.890625 L 61.425781 38.402344 L 63.09375 38.644531 L 61.886719 39.820312 L 62.171875 41.480469 L 60.679688 40.695312 L 59.1875 41.480469 L 59.472656 39.820312 L 58.265625 38.644531 L 59.933594 38.402344 Z M 60.679688 36.890625 " fill-opacity="1" fill-rule="nonzero"/></g><g clip-path="url(#f0a149f709)"><path fill="#000000" d="M 23.71875 33.203125 L 37.59375 40.125 L 49.734375 34.070312 L 49.734375 48.773438 L 51.46875 48.773438 L 51.46875 33.203125 L 37.59375 26.285156 Z M 23.71875 33.203125 " fill-opacity="1" fill-rule="nonzero"/></g><g clip-path="url(#22466c8c64)"><path fill="#000000" d="M 28.921875 36.765625 L 28.921875 44.449219 L 37.59375 48.773438 L 46.265625 44.449219 L 46.265625 36.765625 L 37.59375 41.089844 Z M 28.921875 36.765625 " fill-opacity="1" fill-rule="nonzero"/></g><g fill="#ffffff" fill-opacity="1"><g transform="translate(20.163275, 24.285853)"><g><path d="M 0.671875 -2.109375 C 0.578125 -2.191406 0.472656 -2.21875 0.359375 -2.1875 C 0.242188 -2.164062 0.078125 -2.09375 -0.140625 -1.96875 C -0.359375 -1.84375 -0.535156 -1.75 -0.671875 -1.6875 C -1.078125 -1.539062 -1.410156 -1.582031 -1.671875 -1.8125 C -1.804688 -1.925781 -1.894531 -2.066406 -1.9375 -2.234375 C -1.976562 -2.398438 -1.960938 -2.582031 -1.890625 -2.78125 C -1.828125 -2.976562 -1.722656 -3.164062 -1.578125 -3.34375 C -1.421875 -3.519531 -1.25 -3.648438 -1.0625 -3.734375 C -0.875 -3.816406 -0.679688 -3.84375 -0.484375 -3.8125 C -0.296875 -3.789062 -0.128906 -3.710938 0.015625 -3.578125 L -0.4375 -3.0625 C -0.550781 -3.164062 -0.671875 -3.207031 -0.796875 -3.1875 C -0.929688 -3.175781 -1.054688 -3.109375 -1.171875 -2.984375 C -1.273438 -2.859375 -1.332031 -2.734375 -1.34375 -2.609375 C -1.351562 -2.492188 -1.3125 -2.394531 -1.21875 -2.3125 C -1.132812 -2.25 -1.03125 -2.234375 -0.90625 -2.265625 C -0.78125 -2.304688 -0.625 -2.382812 -0.4375 -2.5 C -0.101562 -2.707031 0.1875 -2.820312 0.4375 -2.84375 C 0.695312 -2.863281 0.925781 -2.789062 1.125 -2.625 C 1.332031 -2.4375 1.425781 -2.207031 1.40625 -1.9375 C 1.394531 -1.664062 1.265625 -1.382812 1.015625 -1.09375 C 0.847656 -0.90625 0.660156 -0.757812 0.453125 -0.65625 C 0.242188 -0.5625 0.046875 -0.523438 -0.140625 -0.546875 C -0.335938 -0.578125 -0.519531 -0.664062 -0.6875 -0.8125 L -0.25 -1.328125 C 0.03125 -1.085938 0.316406 -1.128906 0.609375 -1.453125 C 0.722656 -1.578125 0.78125 -1.695312 0.78125 -1.8125 C 0.789062 -1.9375 0.753906 -2.035156 0.671875 -2.109375 Z M 0.671875 -2.109375 "/></g></g></g><g fill="#ffffff" fill-opacity="1"><g transform="translate(22.464313, 21.720697)"><g><path d="M 0.8125 -2.578125 L -0.1875 -1.734375 L 0.390625 -1.0625 L 1.578125 -2.0625 L 1.9375 -1.640625 L 0.21875 -0.1875 L -1.9375 -2.71875 L -0.21875 -4.171875 L 0.140625 -3.765625 L -1.046875 -2.765625 L -0.53125 -2.15625 L 0.46875 -3 Z M 0.8125 -2.578125 "/></g></g></g><g fill="#ffffff" fill-opacity="1"><g transform="translate(24.927591, 19.673975)"><g><path d="M 1.28125 -1.8125 C 1.207031 -1.914062 1.109375 -1.972656 0.984375 -1.984375 C 0.867188 -2.003906 0.6875 -1.984375 0.4375 -1.921875 C 0.195312 -1.867188 0 -1.835938 -0.15625 -1.828125 C -0.582031 -1.796875 -0.882812 -1.929688 -1.0625 -2.234375 C -1.15625 -2.378906 -1.195312 -2.535156 -1.1875 -2.703125 C -1.175781 -2.878906 -1.109375 -3.050781 -0.984375 -3.21875 C -0.859375 -3.382812 -0.695312 -3.53125 -0.5 -3.65625 C -0.300781 -3.78125 -0.101562 -3.851562 0.09375 -3.875 C 0.300781 -3.90625 0.488281 -3.878906 0.65625 -3.796875 C 0.832031 -3.710938 0.972656 -3.585938 1.078125 -3.421875 L 0.5 -3.0625 C 0.414062 -3.1875 0.304688 -3.257812 0.171875 -3.28125 C 0.046875 -3.300781 -0.0820312 -3.269531 -0.21875 -3.1875 C -0.363281 -3.09375 -0.457031 -2.992188 -0.5 -2.890625 C -0.539062 -2.785156 -0.53125 -2.679688 -0.46875 -2.578125 C -0.414062 -2.484375 -0.320312 -2.429688 -0.1875 -2.421875 C -0.0507812 -2.421875 0.117188 -2.453125 0.328125 -2.515625 C 0.710938 -2.617188 1.023438 -2.640625 1.265625 -2.578125 C 1.515625 -2.523438 1.710938 -2.390625 1.859375 -2.171875 C 2.003906 -1.929688 2.023438 -1.679688 1.921875 -1.421875 C 1.828125 -1.160156 1.625 -0.929688 1.3125 -0.734375 C 1.09375 -0.609375 0.863281 -0.53125 0.625 -0.5 C 0.394531 -0.46875 0.191406 -0.488281 0.015625 -0.5625 C -0.148438 -0.644531 -0.289062 -0.78125 -0.40625 -0.96875 L 0.171875 -1.328125 C 0.359375 -1.015625 0.640625 -0.972656 1.015625 -1.203125 C 1.148438 -1.296875 1.238281 -1.394531 1.28125 -1.5 C 1.332031 -1.601562 1.332031 -1.707031 1.28125 -1.8125 Z M 1.28125 -1.8125 "/></g></g></g><g fill="#ffffff" fill-opacity="1"><g transform="translate(27.93164, 17.919541)"><g><path d="M 0.9375 -0.421875 L 0.3125 -0.140625 L -1.078125 -3.171875 L -0.453125 -3.453125 Z M 0.9375 -0.421875 "/></g></g></g><g fill="#ffffff" fill-opacity="1"><g transform="translate(29.777939, 17.11052)"><g/></g></g><g fill="#ffffff" fill-opacity="1"><g transform="translate(31.442436, 16.497021)"><g><path d="M 0.703125 -1.359375 L 0.953125 -0.21875 L 0.296875 -0.0625 L -0.421875 -3.3125 L 0.84375 -3.59375 C 1.082031 -3.644531 1.300781 -3.644531 1.5 -3.59375 C 1.707031 -3.550781 1.878906 -3.457031 2.015625 -3.3125 C 2.160156 -3.175781 2.253906 -3.007812 2.296875 -2.8125 C 2.367188 -2.476562 2.316406 -2.191406 2.140625 -1.953125 C 1.960938 -1.722656 1.6875 -1.566406 1.3125 -1.484375 Z M 0.578125 -1.90625 L 1.1875 -2.03125 C 1.363281 -2.070312 1.488281 -2.144531 1.5625 -2.25 C 1.632812 -2.351562 1.65625 -2.484375 1.625 -2.640625 C 1.59375 -2.796875 1.515625 -2.910156 1.390625 -2.984375 C 1.273438 -3.066406 1.132812 -3.09375 0.96875 -3.0625 L 0.34375 -2.9375 Z M 0.578125 -1.90625 "/></g></g></g><g fill="#ffffff" fill-opacity="1"><g transform="translate(34.955309, 15.776518)"><g><path d="M 0.953125 -0.609375 L 2.40625 -0.71875 L 2.4375 -0.171875 L 0.296875 -0.015625 L 0.078125 -3.34375 L 0.765625 -3.390625 Z M 0.953125 -0.609375 "/></g></g></g><g fill="#ffffff" fill-opacity="1"><g transform="translate(38.050207, 15.587046)"><g><path d="M 2.21875 -0.5 L 1.03125 -0.609375 L 0.75 0.0625 L 0.015625 0 L 1.546875 -3.203125 L 2.1875 -3.140625 L 3.125 0.265625 L 2.390625 0.203125 Z M 1.265625 -1.15625 L 2.109375 -1.078125 L 1.796875 -2.328125 Z M 1.265625 -1.15625 "/></g></g></g><g fill="#ffffff" fill-opacity="1"><g transform="translate(41.726664, 15.948091)"><g><path d="M 2.90625 0.765625 L 2.25 0.59375 L 1.515625 -1.859375 L 0.953125 0.25 L 0.28125 0.078125 L 1.125 -3.140625 L 1.796875 -2.96875 L 2.546875 -0.515625 L 3.09375 -2.625 L 3.75 -2.453125 Z M 2.90625 0.765625 "/></g></g></g><g fill="#ffffff" fill-opacity="1"><g transform="translate(45.433617, 16.982624)"><g><path d="M 2.25 0.28125 L 1.15625 -0.21875 L 0.6875 0.3125 L 0.015625 0 L 2.53125 -2.515625 L 3.109375 -2.25 L 2.859375 1.3125 L 2.1875 1 Z M 1.5625 -0.65625 L 2.328125 -0.3125 L 2.46875 -1.609375 Z M 1.5625 -0.65625 "/></g></g></g><g fill="#ffffff" fill-opacity="1"><g transform="translate(48.780466, 18.589054)"><g><path d="M 1.125 0.09375 L 2.328125 0.890625 L 2.03125 1.34375 L 0.25 0.15625 L 2.078125 -2.625 L 2.65625 -2.234375 Z M 1.125 0.09375 "/></g></g></g><g fill="#ffffff" fill-opacity="1"><g transform="translate(51.355975, 20.326394)"><g><path d="M 3.953125 -0.1875 L 3.1875 -0.875 L 1.328125 1.1875 L 0.8125 0.734375 L 2.671875 -1.328125 L 1.921875 -2 L 2.296875 -2.40625 L 4.328125 -0.59375 Z M 3.953125 -0.1875 "/></g></g></g><g fill="#ffffff" fill-opacity="1"><g transform="translate(53.897141, 22.659343)"><g><path d="M 3.140625 1.375 C 2.878906 1.582031 2.613281 1.71875 2.34375 1.78125 C 2.082031 1.84375 1.832031 1.832031 1.59375 1.75 C 1.363281 1.664062 1.160156 1.515625 0.984375 1.296875 C 0.804688 1.078125 0.703125 0.84375 0.671875 0.59375 C 0.640625 0.34375 0.679688 0.09375 0.796875 -0.15625 C 0.921875 -0.40625 1.109375 -0.628906 1.359375 -0.828125 L 1.484375 -0.921875 C 1.742188 -1.128906 2.003906 -1.265625 2.265625 -1.328125 C 2.535156 -1.398438 2.789062 -1.390625 3.03125 -1.296875 C 3.269531 -1.210938 3.472656 -1.0625 3.640625 -0.84375 C 3.816406 -0.625 3.921875 -0.390625 3.953125 -0.140625 C 3.984375 0.109375 3.9375 0.359375 3.8125 0.609375 C 3.695312 0.859375 3.507812 1.085938 3.25 1.296875 Z M 2.828125 0.75 C 3.097656 0.53125 3.265625 0.316406 3.328125 0.109375 C 3.398438 -0.0976562 3.359375 -0.296875 3.203125 -0.484375 C 3.066406 -0.671875 2.882812 -0.753906 2.65625 -0.734375 C 2.4375 -0.710938 2.195312 -0.597656 1.9375 -0.390625 L 1.8125 -0.296875 C 1.539062 -0.078125 1.367188 0.132812 1.296875 0.34375 C 1.234375 0.550781 1.273438 0.75 1.421875 0.9375 C 1.566406 1.125 1.75 1.207031 1.96875 1.1875 C 2.1875 1.175781 2.429688 1.0625 2.703125 0.84375 Z M 2.828125 0.75 "/></g></g></g><g fill="#ffffff" fill-opacity="1"><g transform="translate(56.202602, 25.715117)"><g/></g></g><g fill="#000000" fill-opacity="1"><g transform="translate(13.960451, 45.392209)"><g><path d="M 2.71875 -0.15625 L 1.265625 1.171875 L 3.234375 1.046875 L 3.5 1.6875 L 1.140625 2.6875 L 0.9375 2.203125 L 1.578125 1.921875 L 2.703125 1.484375 L 0.6875 1.609375 L 0.546875 1.28125 L 2.03125 -0.109375 L 0.9375 0.40625 L 0.296875 0.6875 L 0.09375 0.21875 L 2.453125 -0.78125 Z M 2.71875 -0.15625 "/></g></g></g><g fill="#000000" fill-opacity="1"><g transform="translate(15.717159, 49.209448)"><g><path d="M 1.875 0.921875 L 1.34375 0.0625 L 0.75 0.421875 L 1.375 1.4375 L 1.015625 1.65625 L 0.125 0.203125 L 2.3125 -1.140625 L 3.203125 0.3125 L 2.828125 0.546875 L 2.203125 -0.46875 L 1.6875 -0.15625 L 2.21875 0.703125 Z M 1.875 0.921875 "/></g></g></g><g fill="#000000" fill-opacity="1"><g transform="translate(17.360764, 51.786171)"><g><path d="M 3.359375 0.0625 L 2.046875 1.125 C 1.828125 1.300781 1.597656 1.375 1.359375 1.34375 C 1.117188 1.3125 0.90625 1.175781 0.71875 0.9375 C 0.53125 0.707031 0.441406 0.472656 0.453125 0.234375 C 0.460938 -0.00390625 0.578125 -0.210938 0.796875 -0.390625 L 2.125 -1.453125 L 2.46875 -1.03125 L 1.15625 0.03125 C 1.019531 0.132812 0.941406 0.238281 0.921875 0.34375 C 0.910156 0.445312 0.953125 0.554688 1.046875 0.671875 C 1.222656 0.898438 1.441406 0.921875 1.703125 0.734375 L 3.03125 -0.328125 Z M 3.359375 0.0625 "/></g></g></g><g fill="#000000" fill-opacity="1"><g transform="translate(19.549557, 54.349856)"><g/></g></g><g fill="#000000" fill-opacity="1"><g transform="translate(20.903269, 55.684245)"><g><path d="M 2.265625 0.75 C 2.085938 0.945312 1.875 1.050781 1.625 1.0625 C 1.382812 1.070312 1.148438 0.976562 0.921875 0.78125 C 0.671875 0.582031 0.539062 0.335938 0.53125 0.046875 C 0.519531 -0.242188 0.632812 -0.539062 0.875 -0.84375 L 0.984375 -0.96875 C 1.140625 -1.15625 1.304688 -1.296875 1.484375 -1.390625 C 1.660156 -1.484375 1.84375 -1.515625 2.03125 -1.484375 C 2.21875 -1.460938 2.398438 -1.382812 2.578125 -1.25 C 2.796875 -1.0625 2.925781 -0.847656 2.96875 -0.609375 C 3.007812 -0.378906 2.953125 -0.144531 2.796875 0.09375 L 2.390625 -0.234375 C 2.484375 -0.367188 2.519531 -0.488281 2.5 -0.59375 C 2.488281 -0.707031 2.425781 -0.8125 2.3125 -0.90625 C 2.164062 -1.019531 2.019531 -1.054688 1.875 -1.015625 C 1.726562 -0.972656 1.570312 -0.847656 1.40625 -0.640625 L 1.28125 -0.484375 C 1.101562 -0.273438 1.007812 -0.09375 1 0.0625 C 0.988281 0.21875 1.050781 0.347656 1.1875 0.453125 C 1.3125 0.554688 1.425781 0.601562 1.53125 0.59375 C 1.644531 0.582031 1.753906 0.523438 1.859375 0.421875 Z M 2.265625 0.75 "/></g></g></g><g fill="#000000" fill-opacity="1"><g transform="translate(23.586524, 57.76335)"><g><path d="M 3.171875 -1.078125 L 2.296875 0.359375 C 2.148438 0.597656 1.960938 0.742188 1.734375 0.796875 C 1.503906 0.847656 1.257812 0.796875 1 0.640625 C 0.738281 0.484375 0.570312 0.289062 0.5 0.0625 C 0.425781 -0.15625 0.460938 -0.382812 0.609375 -0.625 L 1.5 -2.078125 L 1.953125 -1.8125 L 1.078125 -0.375 C 0.992188 -0.226562 0.960938 -0.101562 0.984375 0 C 1.015625 0.113281 1.09375 0.207031 1.21875 0.28125 C 1.46875 0.4375 1.675781 0.378906 1.84375 0.109375 L 2.734375 -1.34375 Z M 3.171875 -1.078125 "/></g></g></g><g fill="#000000" fill-opacity="1"><g transform="translate(26.539817, 59.461763)"><g><path d="M 1.453125 -0.390625 L 1.0625 -0.5625 L 0.6875 0.296875 L 0.21875 0.09375 L 1.234375 -2.265625 L 2.09375 -1.890625 C 2.363281 -1.773438 2.550781 -1.617188 2.65625 -1.421875 C 2.757812 -1.234375 2.757812 -1.023438 2.65625 -0.796875 C 2.582031 -0.628906 2.488281 -0.507812 2.375 -0.4375 C 2.257812 -0.363281 2.117188 -0.320312 1.953125 -0.3125 L 2.046875 0.84375 L 2.03125 0.875 L 1.515625 0.65625 Z M 1.234375 -0.953125 L 1.625 -0.78125 C 1.75 -0.726562 1.859375 -0.71875 1.953125 -0.75 C 2.046875 -0.789062 2.113281 -0.863281 2.15625 -0.96875 C 2.207031 -1.082031 2.210938 -1.179688 2.171875 -1.265625 C 2.140625 -1.359375 2.054688 -1.429688 1.921875 -1.484375 L 1.53125 -1.65625 Z M 1.234375 -0.953125 "/></g></g></g><g fill="#000000" fill-opacity="1"><g transform="translate(29.624931, 60.717722)"><g><path d="M 1.671875 -0.21875 C 1.691406 -0.3125 1.675781 -0.394531 1.625 -0.46875 C 1.582031 -0.550781 1.476562 -0.640625 1.3125 -0.734375 C 1.15625 -0.835938 1.035156 -0.9375 0.953125 -1.03125 C 0.722656 -1.25 0.644531 -1.484375 0.71875 -1.734375 C 0.75 -1.867188 0.816406 -1.976562 0.921875 -2.0625 C 1.023438 -2.144531 1.15625 -2.195312 1.3125 -2.21875 C 1.46875 -2.25 1.628906 -2.238281 1.796875 -2.1875 C 1.984375 -2.132812 2.132812 -2.054688 2.25 -1.953125 C 2.375 -1.847656 2.453125 -1.726562 2.484375 -1.59375 C 2.523438 -1.457031 2.523438 -1.316406 2.484375 -1.171875 L 1.984375 -1.3125 C 2.015625 -1.414062 2.003906 -1.507812 1.953125 -1.59375 C 1.898438 -1.6875 1.8125 -1.75 1.6875 -1.78125 C 1.5625 -1.820312 1.453125 -1.820312 1.359375 -1.78125 C 1.273438 -1.738281 1.222656 -1.675781 1.203125 -1.59375 C 1.171875 -1.519531 1.191406 -1.441406 1.265625 -1.359375 C 1.347656 -1.285156 1.453125 -1.203125 1.578125 -1.109375 C 1.847656 -0.953125 2.03125 -0.789062 2.125 -0.625 C 2.21875 -0.457031 2.238281 -0.273438 2.1875 -0.078125 C 2.125 0.128906 1.992188 0.269531 1.796875 0.34375 C 1.597656 0.425781 1.363281 0.425781 1.09375 0.34375 C 0.90625 0.289062 0.742188 0.207031 0.609375 0.09375 C 0.472656 -0.0195312 0.382812 -0.148438 0.34375 -0.296875 C 0.300781 -0.441406 0.300781 -0.585938 0.34375 -0.734375 L 0.84375 -0.59375 C 0.769531 -0.320312 0.894531 -0.140625 1.21875 -0.046875 C 1.34375 -0.015625 1.441406 -0.015625 1.515625 -0.046875 C 1.585938 -0.078125 1.640625 -0.132812 1.671875 -0.21875 Z M 1.671875 -0.21875 "/></g></g></g><g fill="#000000" fill-opacity="1"><g transform="translate(32.770076, 61.544119)"><g><path d="M 2.484375 -0.875 C 2.453125 -0.625 2.378906 -0.414062 2.265625 -0.25 C 2.148438 -0.0820312 2 0.0390625 1.8125 0.125 C 1.632812 0.207031 1.441406 0.234375 1.234375 0.203125 C 1.015625 0.171875 0.828125 0.0976562 0.671875 -0.015625 C 0.523438 -0.140625 0.421875 -0.300781 0.359375 -0.5 C 0.304688 -0.707031 0.296875 -0.929688 0.328125 -1.171875 L 0.34375 -1.296875 C 0.375 -1.546875 0.445312 -1.757812 0.5625 -1.9375 C 0.675781 -2.113281 0.820312 -2.238281 1 -2.3125 C 1.175781 -2.394531 1.367188 -2.421875 1.578125 -2.390625 C 1.796875 -2.359375 1.976562 -2.28125 2.125 -2.15625 C 2.28125 -2.039062 2.390625 -1.878906 2.453125 -1.671875 C 2.515625 -1.460938 2.53125 -1.234375 2.5 -0.984375 Z M 1.96875 -1.0625 C 2 -1.332031 1.972656 -1.546875 1.890625 -1.703125 C 1.816406 -1.859375 1.691406 -1.945312 1.515625 -1.96875 C 1.335938 -1.988281 1.195312 -1.9375 1.09375 -1.8125 C 0.988281 -1.695312 0.914062 -1.503906 0.875 -1.234375 L 0.859375 -1.109375 C 0.816406 -0.847656 0.828125 -0.640625 0.890625 -0.484375 C 0.960938 -0.328125 1.09375 -0.238281 1.28125 -0.21875 C 1.445312 -0.195312 1.585938 -0.242188 1.703125 -0.359375 C 1.828125 -0.484375 1.910156 -0.675781 1.953125 -0.9375 Z M 1.96875 -1.0625 "/></g></g></g><g fill="#000000" fill-opacity="1"><g transform="translate(36.23812, 61.933435)"><g/></g></g><g fill="#000000" fill-opacity="1"><g transform="translate(38.159266, 62.000041)"><g><path d="M 0.6875 -2.625 L 1.515625 -0.84375 L 1.96875 -2.75 L 2.671875 -2.8125 L 2.90625 -0.265625 L 2.375 -0.21875 L 2.3125 -0.921875 L 2.25 -2.109375 L 1.75 -0.15625 L 1.390625 -0.125 L 0.53125 -1.953125 L 0.6875 -0.765625 L 0.75 -0.0625 L 0.234375 -0.015625 L 0 -2.5625 Z M 0.6875 -2.625 "/></g></g></g><g fill="#000000" fill-opacity="1"><g transform="translate(42.304802, 61.490425)"><g><path d="M 0.765625 -0.171875 L 0.265625 -0.0625 L -0.28125 -2.5625 L 0.21875 -2.671875 Z M 0.765625 -0.171875 "/></g></g></g><g fill="#000000" fill-opacity="1"><g transform="translate(44.315475, 61.032406)"><g><path d="M 2.1875 -0.75 L 1.6875 -0.578125 L 0.15625 -1.84375 L 0.703125 -0.25 L 0.21875 -0.078125 L -0.609375 -2.5 L -0.125 -2.671875 L 1.40625 -1.40625 L 0.859375 -3 L 1.359375 -3.171875 Z M 2.1875 -0.75 "/></g></g></g><g fill="#000000" fill-opacity="1"><g transform="translate(47.687024, 59.799747)"><g><path d="M 2.0625 -1.0625 L 1.578125 -0.8125 L 1.078125 -1.78125 L 0.171875 -1.3125 L 0.671875 -0.34375 L 0.203125 -0.109375 L -0.96875 -2.390625 L -0.5 -2.625 L -0.015625 -1.6875 L 0.890625 -2.15625 L 0.40625 -3.09375 L 0.890625 -3.34375 Z M 2.0625 -1.0625 "/></g></g></g><g fill="#000000" fill-opacity="1"><g transform="translate(50.843657, 58.093223)"><g><path d="M 1.046875 -1.40625 L 0.296875 -0.875 L 0.46875 -0.328125 L 0.015625 -0.015625 L -0.6875 -2.65625 L -0.296875 -2.9375 L 1.96875 -1.390625 L 1.5 -1.0625 Z M 0.1875 -1.296875 L 0.703125 -1.671875 L -0.109375 -2.25 Z M 0.1875 -1.296875 "/></g></g></g><g fill="#000000" fill-opacity="1"><g transform="translate(53.584665, 56.039412)"><g/></g></g><g fill="#000000" fill-opacity="1"><g transform="translate(55.000893, 54.771991)"><g><path d="M 0.328125 -1.296875 L -0.703125 -3.03125 L -0.3125 -3.453125 L 0.984375 -1.078125 L 0.609375 -0.671875 L -1.875 -1.75 L -1.484375 -2.171875 Z M 0.328125 -1.296875 "/></g></g></g><g fill="#000000" fill-opacity="1"><g transform="translate(57.204959, 52.23729)"><g><path d="M 0.46875 -0.625 L 0.15625 -0.21875 L -1.90625 -1.734375 L -1.59375 -2.140625 Z M 0.46875 -0.625 "/></g></g></g><g fill="#000000" fill-opacity="1"><g transform="translate(58.407604, 50.569009)"><g><path d="M 0.125 -0.203125 L -2.09375 -1.484375 L -1.703125 -2.15625 C -1.597656 -2.34375 -1.453125 -2.488281 -1.265625 -2.59375 C -1.085938 -2.707031 -0.890625 -2.757812 -0.671875 -2.75 C -0.460938 -2.738281 -0.257812 -2.675781 -0.0625 -2.5625 L 0.046875 -2.5 C 0.242188 -2.382812 0.398438 -2.238281 0.515625 -2.0625 C 0.628906 -1.882812 0.6875 -1.691406 0.6875 -1.484375 C 0.6875 -1.273438 0.628906 -1.070312 0.515625 -0.875 Z M -1.46875 -1.71875 L 0.015625 -0.875 L 0.15625 -1.09375 C 0.25 -1.269531 0.265625 -1.4375 0.203125 -1.59375 C 0.140625 -1.757812 0 -1.90625 -0.21875 -2.03125 L -0.328125 -2.09375 C -0.554688 -2.226562 -0.753906 -2.28125 -0.921875 -2.25 C -1.085938 -2.226562 -1.222656 -2.125 -1.328125 -1.9375 Z M -1.46875 -1.71875 "/></g></g></g><g fill="#000000" fill-opacity="1"><g transform="translate(60.04284, 47.611053)"><g><path d="M 0.140625 -1.75 L -0.203125 -0.890625 L 0.21875 -0.53125 L 0 -0.015625 L -2.015625 -1.859375 L -1.828125 -2.3125 L 0.90625 -2.234375 L 0.703125 -1.703125 Z M -0.53125 -1.1875 L -0.296875 -1.78125 L -1.3125 -1.828125 Z M -0.53125 -1.1875 "/></g></g></g><g clip-path="url(#c2ccc46398)"><g clip-path="url(#610801f318)"><path stroke-linecap="butt" transform="matrix(0.75, 0, 0, 0.75, 17.838571, 17.674967)" fill="none" stroke-linejoin="miter" d="M 26.335033 0.00108567 C 11.788157 0.00108567 0.00169764 11.83442 0.00169764 26.428171 C 0.00169764 41.027131 11.788157 52.860465 26.335033 52.860465 C 40.876701 52.860465 52.66316 41.027131 52.66316 26.428171 C 52.66316 11.83442 40.876701 0.00108567 26.335033 0.00108567 Z M 26.335033 0.00108567 " stroke="#000000" stroke-width="4" stroke-opacity="1" stroke-miterlimit="4"/></g></g></svg>